<svg xmlns="http://www.w3.org/2000/svg" width="15.34mm" height="11.51mm" viewBox="0 0 43.48 32.62"><defs><style>.cls-1{fill:#fff;}</style></defs><g id="Layer_2" data-name="Layer 2"><g id="Layer_1-2" data-name="Layer 1"><path class="cls-1" d="M27.17,0H10.61a1.81,1.81,0,1,0,0,3.62h6.31a1.77,1.77,0,0,1,1.14.53,1.8,1.8,0,0,1-1.28,3.09H8.25a1.81,1.81,0,0,0,0,3.62H25.37a1.86,1.86,0,0,1,1.27.53,1.82,1.82,0,0,1-1.28,3.1H11a1.81,1.81,0,0,0,0,3.62H20.3a1.84,1.84,0,0,1,1.27.53,1.81,1.81,0,0,1-1.28,3.09H1.81a1.81,1.81,0,1,0,0,3.62H16.75A1.79,1.79,0,0,1,18,25.9a1.84,1.84,0,0,1,.53,1.28A1.81,1.81,0,0,1,16.91,29H9.6a1.82,1.82,0,0,0,0,3.63H27.17A16.31,16.31,0,0,0,27.17,0Z"/></g></g></svg>
