<svg xmlns="http://www.w3.org/2000/svg" width="84.17mm" height="11.51mm" viewBox="0 0 238.59 32.62"><defs><style>.cls-1{fill:#fff;}</style></defs><g id="Layer_2" data-name="Layer 2"><g id="Layer_1-2" data-name="Layer 1"><path class="cls-1" d="M110.32,29.45c-1.27,2.14-3.93,3.08-6.36,3.08-5.55,0-8.73-4.06-8.73-9.06V9h6.21V22.21c0,2.57,1.31,4.62,4.21,4.62,2.75,0,4.34-1.87,4.34-4.53V9h6.21V27.76a38.81,38.81,0,0,0,.23,4.16H110.5A16.31,16.31,0,0,1,110.32,29.45Z"/><path class="cls-1" d="M128.25,20.39,120.08,9h7.37c.8,1.26,3.79,5.55,4.58,6.81L136.56,9h7.05l-8,11.25,8.31,11.72h-7.28l-4.81-7c-.84,1.26-3.93,5.79-4.72,7.05h-7Z"/><path class="cls-1" d="M151.27,20.43c0,4.16,2.71,6.49,5.88,6.49a5.26,5.26,0,0,0,5.28-3.87l5.46,1.82a10.66,10.66,0,0,1-10.74,7.75,11.89,11.89,0,0,1-12.09-12.19A11.76,11.76,0,0,1,157,8.25c6.25,0,9.8,3.87,10.78,7.75l-5.55,1.86A5,5,0,0,0,157.11,14C153.93,14,151.27,16.28,151.27,20.43Z"/><path class="cls-1" d="M194.6,20.43a12,12,0,1,1-24.09,0,12,12,0,1,1,24.09,0Zm-6.21,0c0-4.34-2.8-6.53-5.83-6.53s-5.84,2.19-5.84,6.53,2.8,6.54,5.84,6.54S188.39,24.78,188.39,20.43Z"/><path class="cls-1" d="M213.52,15.11a9.4,9.4,0,0,0-1.87-.19c-3.18,0-5.93,1.54-5.93,6.49V31.92h-6.21V9h6v3.4c1.4-3,4.58-3.59,6.54-3.59.51,0,1,.05,1.45.09Z"/><path class="cls-1" d="M238.27,25.34c-1.17,4-4.81,7.28-10.46,7.28-6.31,0-11.86-4.53-11.86-12.28,0-7.33,5.41-12.09,11.3-12.09,7.09,0,11.34,4.52,11.34,11.9,0,.89-.09,1.82-.09,1.92H222.06a5.6,5.6,0,0,0,5.79,5.23,5.07,5.07,0,0,0,5.23-3.5Zm-5.79-7.52c-.1-2.29-1.59-4.53-5.14-4.53a5,5,0,0,0-5.14,4.53Z"/><path class="cls-1" d="M62,32.62V0H73.83c9.8,0,16.38,6.26,16.38,16.33S83.63,32.62,73.79,32.62Zm11.5-6.85c5,0,9.11-2.9,9.11-9.44s-4.09-9.47-9.11-9.47H69.28V25.77Z"/><path class="cls-1" d="M27.17,0H10.61a1.81,1.81,0,1,0,0,3.62h6.31a1.77,1.77,0,0,1,1.14.53,1.8,1.8,0,0,1-1.28,3.09H8.25a1.81,1.81,0,0,0,0,3.62H25.37a1.86,1.86,0,0,1,1.27.53,1.82,1.82,0,0,1-1.28,3.1H11a1.81,1.81,0,0,0,0,3.62H20.3a1.84,1.84,0,0,1,1.27.53,1.81,1.81,0,0,1-1.28,3.09H1.81a1.81,1.81,0,1,0,0,3.62H16.75A1.79,1.79,0,0,1,18,25.9a1.84,1.84,0,0,1,.53,1.28A1.81,1.81,0,0,1,16.91,29H9.6a1.82,1.82,0,0,0,0,3.63H27.17A16.31,16.31,0,0,0,27.17,0Z"/></g></g></svg>
