<?xml version="1.0" standalone="no"?>
<!DOCTYPE svg PUBLIC "-//W3C//DTD SVG 20010904//EN"
 "http://www.w3.org/TR/2001/REC-SVG-20010904/DTD/svg10.dtd">
<svg version="1.0" xmlns="http://www.w3.org/2000/svg"
 width="1000.000000pt" height="1000.000000pt" viewBox="0 0 1000.000000 1000.000000"
 preserveAspectRatio="xMidYMid meet">
<metadata>
Created by potrace 1.14, written by Peter Selinger 2001-2017
</metadata>
<g transform="translate(0.000000,1000.000000) scale(0.100000,-0.100000)"
fill="#000000" stroke="none">
<path d="M0 5000 l0 -5000 5000 0 5000 0 0 5000 0 5000 -5000 0 -5000 0 0
-5000z m6470 3381 c633 -78 1179 -286 1650 -630 781 -570 1271 -1410 1386
-2376 22 -189 22 -561 0 -750 -124 -1043 -699 -1957 -1577 -2505 -145 -91
-458 -245 -615 -304 -320 -118 -662 -188 -994 -203 -91 -5 -1018 -6 -2060 -3
l-1895 5 -56 28 c-68 33 -151 118 -181 184 -32 73 -37 210 -9 284 43 115 125
193 240 229 61 19 90 20 855 20 694 0 799 2 847 16 160 47 269 190 271 355 1
125 -53 232 -156 310 -98 74 33 69 -1741 69 -1028 0 -1611 4 -1645 10 -164 31
-280 149 -311 313 -20 111 30 257 114 333 22 20 69 50 106 68 l66 31 2015 5
2015 5 56 28 c84 41 143 98 181 175 31 63 33 73 33 172 0 100 -1 108 -34 168
-41 75 -103 135 -179 170 l-57 27 -1050 5 -1050 5 -57 23 c-81 33 -160 108
-200 190 -30 61 -33 74 -33 162 0 84 3 102 29 158 37 80 122 161 203 194 l58
23 1580 5 c1513 5 1582 6 1620 24 154 71 244 217 233 377 -10 131 -92 252
-214 314 l-59 30 -1875 5 -1875 5 -67 32 c-82 39 -151 106 -186 181 -34 73
-42 193 -18 275 29 101 119 196 228 240 53 22 56 22 1028 27 l975 5 67 33
c286 141 280 537 -11 679 l-56 28 -735 5 -735 5 -67 32 c-82 39 -151 106 -186
181 -24 50 -27 69 -27 162 0 98 2 109 31 165 58 110 158 184 275 204 83 14
3730 7 3849 -8z"/>
</g>
</svg>
